<svg viewBox="0 0 48 48" fill="none" xmlns="http://www.w3.org/2000/svg">
  <path fill="url(#paint0_linear)" fill-rule="evenodd" clip-rule="evenodd" d="M24.001 9.857c-6.4 0-10.4 3.2-12 9.6 2.4-3.2 5.2-4.4 8.4-3.6 1.826.456 3.13 1.782 4.574 3.243C26.8 21.071 29.011 23.31 36 23.31c6.4 0 10.4-3.2 12-9.6-2.4 3.2-5.2 4.4-8.4 3.6-1.826-.457-3.13-1.783-4.574-3.244-1.826-1.967-4.037-4.205-11.025-4.205zm-12 13.453c-6.4 0-10.4 3.2-12 9.6 2.4-3.2 5.2-4.4 8.4-3.6 1.826.457 3.13 1.783 4.574 3.244 1.826 1.967 4.037 4.205 11.025 4.205 6.4 0 10.4-3.2 12-9.6-2.4 3.2-5.2 4.4-8.4 3.6-1.826-.456-3.13-1.782-4.574-3.243-1.826-1.967-4.037-4.205-11.025-4.205z"/>
  <defs>
    <linearGradient id="paint0_linear" x1="12" y1="9.857" x2="36" y2="38.143" gradientUnits="userSpaceOnUse">
      <stop stop-color="#2298BD"/>
      <stop offset="1" stop-color="#0ED7B5"/>
    </linearGradient>
  </defs>
</svg>
